<svg width="33" height="30" viewBox="0 0 33 30" fill="none" xmlns="http://www.w3.org/2000/svg">
<path d="M32.0619 23.5183C31.7371 24.276 30.3642 24.8327 27.8636 25.2209C27.7349 25.3946 27.6283 26.1362 27.458 26.714C27.3567 27.0609 27.1076 27.2668 26.7021 27.2668L26.6836 27.2665C26.0981 27.2665 25.4868 26.997 24.2621 26.997C22.6092 26.997 22.0395 27.3737 20.756 28.2802C19.3953 29.2424 18.0903 30.073 16.1422 29.9879C14.1698 30.1333 12.5257 28.9341 11.6004 28.2799C10.3094 27.3673 9.74137 26.9971 8.09515 26.9971C6.91942 26.9971 6.17949 27.2913 5.67365 27.2913C5.17049 27.2913 4.97479 26.9845 4.89943 26.7278C4.73097 26.1551 4.62495 25.4026 4.49288 25.2239C3.20404 25.0239 0.297703 24.5169 0.223659 23.2201C0.214684 23.0572 0.266189 22.8966 0.368293 22.7693C0.470398 22.642 0.615913 22.5569 0.776929 22.5302C5.11377 21.8163 7.06714 17.3633 7.14835 17.1743C7.15296 17.1633 7.15801 17.1529 7.16312 17.1422C7.39454 16.6724 7.44633 16.279 7.31663 15.9734C7.00188 15.232 5.6418 14.966 5.06958 14.7396C3.59152 14.1558 3.38584 13.4851 3.47328 13.0254C3.62517 12.2253 4.82732 11.733 5.53017 12.0622C6.08606 12.3228 6.57993 12.4547 6.99777 12.4547C7.31077 12.4547 7.50959 12.3797 7.61854 12.3194C7.49121 10.0796 7.17596 6.87894 7.97299 5.09149C10.0779 0.372274 14.5394 0.00554702 15.8558 0.00554702C15.9147 0.00554702 16.4255 0 16.4859 0C19.7361 0 22.859 1.6691 24.3841 5.0885C25.1804 6.87414 24.8671 10.0616 24.739 12.3189C24.8376 12.3732 25.0106 12.4399 25.275 12.4522C25.6737 12.4344 26.136 12.3033 26.6505 12.0622C27.0297 11.8849 27.5483 11.9089 27.9269 12.0659L27.9287 12.0665C28.5193 12.2775 28.891 12.7031 28.9003 13.1802C28.9118 13.7877 28.3692 14.3124 27.2874 14.7395C27.1554 14.7916 26.9949 14.8427 26.8241 14.8969C26.2135 15.0905 25.2909 15.3834 25.0406 15.9733C24.911 16.279 24.9623 16.6721 25.1939 17.1418C25.1993 17.1523 25.2042 17.1631 25.2088 17.1739C25.2899 17.3628 27.2416 21.8147 31.5804 22.5299C31.981 22.5958 32.2762 23.0208 32.0619 23.5183V23.5183Z" fill="#FFBB0B"/>
</svg>
