<svg width="159" height="127" viewBox="0 0 159 127" fill="none" xmlns="http://www.w3.org/2000/svg">
<path d="M0 -3H159V107L79.5 127L0 107V-3Z" fill="#F8F4EA"/>
<g clip-path="url(#clip0)">
<path d="M43.5988 53.7691L42.7036 48.4117C42.7036 48.4117 60.4187 43.1017 78.6992 58.2258C68.1455 53.6269 61.2668 50.1659 43.5988 53.7691Z" fill="#134E6E"/>
<path d="M116.862 53.864L117.757 48.5065C117.757 48.5065 100.042 43.1965 81.7617 58.3206C92.3154 53.6744 99.1941 50.2133 116.862 53.864Z" fill="#134E6E"/>
<path d="M45.4365 44.9981L46.0019 40.1622C46.0019 40.1622 62.5392 41.3 71.0669 49.9289C67.5333 46.8471 62.2565 41.7741 52.4095 39.0243C53.0691 36.5115 53.6345 34.6625 53.6345 34.6625C53.6345 34.6625 64.6593 40.1622 70.0775 45.9937C74.9774 51.3038 79.8773 58.937 79.8773 58.937C79.8773 58.937 64.4237 43.2439 45.4365 44.9981Z" fill="#134E6E"/>
<path d="M114.883 44.9981L114.318 40.1622C114.318 40.1622 97.7804 41.3 89.2526 49.9289C92.7862 46.8471 98.063 41.7741 107.91 39.0243C107.25 36.5115 106.685 34.6625 106.685 34.6625C106.685 34.6625 95.6602 40.1622 90.242 45.9937C85.3892 51.209 80.4893 58.8896 80.4893 58.8896C80.4893 58.8896 95.8958 43.2439 114.883 44.9981Z" fill="#134E6E"/>
<path d="M69.5591 36.0375L70.3129 37.5072L71.9148 37.7443L70.737 38.8821L71.0197 40.4941L69.5591 39.7355L68.1457 40.4941L68.4284 38.8821L67.2505 37.7443L68.8524 37.5072L69.5591 36.0375Z" fill="#FFB92D"/>
<path d="M91.7029 36.0375L92.4096 37.5072L94.0115 37.7443L92.8337 38.8821L93.1163 40.4941L91.7029 39.7355L90.2423 40.4941L90.525 38.8821L89.3472 37.7443L90.9491 37.5072L91.7029 36.0375Z" fill="#FFB92D"/>
<path d="M80.2066 48.4117L80.9133 49.8341L82.5152 50.0711L81.3373 51.209L81.62 52.821L80.2066 52.0624L78.746 52.821L79.0287 51.209L77.8979 50.0711L79.4998 49.8341L80.2066 48.4117Z" fill="#FFB92D"/>
<path d="M80.8703 32.172C82.3137 31.829 83.2076 30.3734 82.8667 28.9209C82.5259 27.4684 81.0795 26.569 79.636 26.9119C78.1926 27.2549 77.2988 28.7105 77.6396 30.163C77.9804 31.6155 79.4269 32.5149 80.8703 32.172Z" fill="#00B7BD"/>
<path d="M90.9491 31.2964C78.6051 37.7918 69.4648 31.249 69.4648 31.249C70.7369 33.0032 71.7735 34.0937 72.7158 35.1367C74.8359 37.4125 75.2599 37.6969 76.0138 38.6452C76.1551 38.7874 75.2128 41.1579 73.5167 47.1317C81.9973 41.395 88.1223 34.6626 90.9491 31.2964Z" fill="#00B7BD"/>
<path d="M80.9609 42.2483L87.133 46.942L84.4474 39.0718L80.9609 42.2483Z" fill="#00B7BD"/>
<path d="M79.8773 20.0599C59.3353 19.728 48.2633 38.9295 48.4047 38.7872C61.0314 22.4304 77.8042 22.3356 79.9715 22.383C80.0186 22.5726 80.0186 22.383 80.0657 22.383C80.16 22.383 80.2071 22.383 80.2071 22.383C80.2071 22.383 80.2542 22.5726 80.3013 22.383C82.4686 22.3356 99.2414 22.4778 111.868 38.7872C111.962 38.9295 100.749 19.4435 79.8773 20.0599Z" fill="#FBBA39"/>
<path d="M48.0278 31.2015L48.3576 30.3955L49.8182 31.3911L49.347 32.1023L48.0278 31.2015Z" fill="#FBBA39"/>
<path d="M51.7969 25.1802L52.3151 24.5165L54.5766 26.887L53.917 27.456L51.7969 25.1802Z" fill="#FBBA39"/>
<path d="M56.6968 20.1547L57.3564 19.5858L59.8063 23.1891L59.0525 23.6158L56.6968 20.1547Z" fill="#FBBA39"/>
<path d="M62.7275 16.267L63.4343 15.8403L65.4602 20.3918L64.6121 20.7237L62.7275 16.267Z" fill="#FBBA39"/>
<path d="M69.2764 13.4698L70.1244 13.2802L71.4436 18.5902L70.5956 18.7324L69.2764 13.4698Z" fill="#FBBA39"/>
<path d="M76.3906 12.0474L77.2387 12L77.5685 17.6893L76.7204 17.7367L76.3906 12.0474Z" fill="#FBBA39"/>
<path d="M83.4111 12L84.2592 12.0474L84.0236 17.7367L83.1284 17.6893L83.4111 12Z" fill="#FBBA39"/>
<path d="M90.5724 13.1853L91.3733 13.3749L90.0541 18.922L89.2061 18.685L90.5724 13.1853Z" fill="#FBBA39"/>
<path d="M97.2627 15.7455L98.0166 16.1248L95.8493 20.7711L95.0483 20.3444L97.2627 15.7455Z" fill="#FBBA39"/>
<path d="M103.341 19.5383L104.047 20.0124L101.456 23.6157L100.702 23.1416L103.341 19.5383Z" fill="#FBBA39"/>
<path d="M108.382 24.4691L108.994 25.0855L106.638 27.456L106.026 26.8397L108.382 24.4691Z" fill="#FBBA39"/>
<path d="M112.292 30.3007L112.81 31.0118L111.256 32.1023L110.737 31.3911L112.292 30.3007Z" fill="#FBBA39"/>
<path d="M29.0873 70.8372C27.7681 71.0268 27.6738 71.1216 27.6738 72.4017V74.2034C27.6738 74.9619 27.6739 75.6731 27.8152 76.2894C26.496 76.5739 24.7056 77.048 22.9153 77.048C17.9682 77.0954 15 74.0137 15 69.6519C15 65.053 18.7221 62.3506 23.0095 62.3506C25.2239 62.3506 26.8258 62.7773 27.4854 62.8721C27.5325 63.6781 27.6267 65.0056 27.8152 66.3805L27.1556 66.5228C26.6373 64.6737 26.0248 63.9152 24.6585 63.441C24.1402 63.2514 23.2922 63.1566 22.6326 63.1566C19.3346 63.1566 17.2144 65.4323 17.2144 69.4148C17.2144 72.8758 19.0047 76.2894 23.1508 76.2894C23.9047 76.2894 24.5643 76.1472 24.9883 75.9102C25.4595 75.6731 25.7421 75.3886 25.7421 74.5352V72.7336C25.7421 71.169 25.5537 70.9794 23.4806 70.8372V70.2208H29.0402V70.8372H29.0873Z" fill="#134E6E"/>
<path d="M41.9496 73.3026C41.8083 73.8715 41.2429 76.0998 41.0073 76.7636H30.5479V76.1472C32.5738 76.005 32.7151 75.8154 32.7151 74.0137V65.4323C32.7151 63.4885 32.4796 63.3936 30.8777 63.2514V62.6351H37.4737C39.4996 62.6351 40.3477 62.6351 40.5833 62.5876C40.5833 63.1092 40.6775 64.7686 40.7717 65.9064L40.1121 66.0013C39.9237 65.2427 39.6881 64.816 39.4525 64.3419C39.1227 63.6307 38.6045 63.4885 37.3324 63.4885H35.2593C34.5997 63.4885 34.5526 63.5359 34.5526 64.1996V68.9881H36.9554C38.5573 68.9881 38.6987 68.6563 38.9343 67.1865H39.5939V71.6432H38.9343C38.6516 70.0786 38.4631 69.8416 36.9083 69.8416H34.5526V74.156C34.5526 75.6731 35.0237 75.8154 36.1074 75.8154H38.1333C39.4525 75.8154 39.6881 75.6257 40.1592 75.0568C40.5833 74.5827 41.0073 73.7293 41.3371 73.0655L41.9496 73.3026Z" fill="#134E6E"/>
<path d="M58.3926 63.2514C57.0263 63.3936 56.5551 63.6306 56.508 64.6263C56.508 65.3374 56.4609 66.2383 56.4609 68.2769V76.9532H55.6599L46.4255 65.5745V71.0268C46.4255 72.9706 46.4726 73.9663 46.5197 74.5826C46.5668 75.6731 47.0851 76.0049 48.6399 76.1472V76.7635H43.363V76.1472C44.6822 76.0524 45.2005 75.7205 45.2947 74.63C45.3418 73.9189 45.3889 72.9706 45.3889 70.9794V65.4323C45.3889 64.8159 45.3418 64.484 44.9649 64.0099C44.5409 63.4884 44.1168 63.3462 43.0332 63.2514V62.635H46.2841L55.4244 73.5396V68.2295C55.4244 66.1908 55.3772 65.29 55.3301 64.6263C55.283 63.6306 54.7648 63.3462 53.0215 63.2514V62.635H58.3455V63.2514H58.3926Z" fill="#134E6E"/>
<path d="M79.971 63.2514C78.1806 63.441 77.9922 63.5358 77.9922 65.3374V74.0611C77.9922 75.8627 78.1806 75.9575 79.971 76.1472V76.7635H74.1759V76.1472C75.9662 75.9101 76.1547 75.9101 76.1547 74.0611V69.6993H68.7577V74.0611C68.7577 75.8627 68.9462 75.9101 70.6894 76.1472V76.7635H64.9414V76.1472C66.6846 75.9575 66.8731 75.9101 66.8731 74.0611V65.3374C66.8731 63.5358 66.6846 63.3936 64.9414 63.2514V62.635H70.6894V63.2514C68.9462 63.3936 68.7577 63.5358 68.7577 65.3374V68.7985H76.1547V65.3374C76.1547 63.5358 75.9191 63.3936 74.1759 63.2514V62.635H79.971V63.2514Z" fill="#134E6E"/>
<path d="M94.1997 63.2514C92.692 63.441 92.4093 63.6781 91.5613 65.053C90.5718 66.6176 89.7709 68.1348 88.7344 70.0786C88.4988 70.6001 88.4046 70.8372 88.4046 71.3587V74.0137C88.4046 75.8154 88.593 75.9576 90.619 76.1472V76.7636H84.4469V76.1472C86.4257 75.9102 86.5671 75.8628 86.5671 74.0137V71.2165C86.5671 70.7898 86.4729 70.6001 86.1431 69.9364C85.3892 68.514 84.6354 67.1391 83.5046 65.1004C82.6566 63.6307 82.4681 63.3462 80.9604 63.204V62.5876H86.2844V63.204C84.7296 63.441 84.8239 63.7255 85.2008 64.4367C86.0959 66.0961 87.1325 68.0399 88.0277 69.6993C88.7815 68.2296 90.0536 65.859 90.619 64.6737C91.1372 63.5833 91.043 63.3936 89.3469 63.204V62.5876H94.2468V63.2514H94.1997Z" fill="#134E6E"/>
<path d="M102.727 69.1304C104.8 69.4623 106.496 70.4579 106.496 72.5914C106.496 74.0612 105.696 75.2464 104.423 75.9576C103.293 76.5739 102.209 76.811 100.701 76.811H95.3774V76.1947C97.2149 76.005 97.3091 75.8154 97.3091 74.1086V65.3849C97.3091 63.5833 97.1207 63.4411 95.3774 63.2988V62.6825H101.031C102.633 62.6825 103.67 62.967 104.376 63.4411C105.13 63.9626 105.648 64.7686 105.648 65.859C105.601 67.8977 103.905 68.7985 102.727 69.1304ZM100.23 68.8459C102.586 68.8459 103.575 67.8977 103.575 66.0961C103.575 64.5789 102.633 63.3937 100.56 63.3937C99.9476 63.3937 99.5706 63.4411 99.3351 63.6307C99.1466 63.773 99.0995 64.01 99.0995 64.6738V68.7985H100.23V68.8459ZM99.1466 74.0137C99.1466 75.5783 99.5235 75.9576 101.031 75.9576C102.727 75.9576 104.376 75.0568 104.376 72.7811C104.376 70.5527 102.822 69.6045 100.183 69.6045H99.1466V74.0137Z" fill="#134E6E"/>
<path d="M127.651 63.2514V62.635H121.856V63.2514C123.646 63.441 123.788 63.5358 123.788 65.3849V74.0137C123.788 75.8627 123.646 75.9575 121.903 76.1472C121.244 76.0523 120.113 75.9575 119.5 75.3412C118.982 74.8197 118.605 74.2507 117.804 73.1129C117.145 72.1172 116.249 70.6949 115.825 69.9837C117.427 69.2726 118.605 68.1347 118.605 66.2383C118.605 64.9107 118.04 63.9151 117.145 63.3936C116.344 62.8721 115.26 62.635 113.705 62.635H108.193V63.2514C109.889 63.441 110.125 63.4884 110.125 65.3374V74.0137C110.125 75.8627 109.983 75.9575 108.193 76.1472V76.7635H113.941V76.1472C112.198 75.9575 111.962 75.8627 111.962 74.0137V70.6001H112.716C113.8 70.6001 114.082 70.7423 114.506 71.4061C115.213 72.4965 115.873 73.9663 116.768 75.0093C117.71 76.1472 118.511 76.4316 120.16 76.7161C120.443 76.7161 121.526 76.7161 121.809 76.7161H127.51V76.0998C125.72 75.9101 125.531 75.8627 125.531 73.9663V65.3374C125.72 63.5358 125.861 63.441 127.651 63.2514ZM115.449 69.2251C114.93 69.6993 114.176 69.8415 113.093 69.8415H112.056V64.5315C112.056 63.9625 112.103 63.7729 112.292 63.5832C112.433 63.441 112.81 63.3462 113.423 63.3462C115.072 63.3462 116.626 64.1996 116.626 66.5227C116.626 67.7554 116.297 68.6088 115.449 69.2251Z" fill="#134E6E"/>
<path d="M135.849 62.635C138.912 62.635 140.796 63.2514 142.163 64.5315C143.199 65.5745 144 67.0916 144 69.1777C144 71.7379 142.964 73.7766 141.315 75.0567C139.666 76.2894 137.593 76.7635 134.907 76.7635H129.866V76.1472C131.703 75.9575 131.797 75.8153 131.797 74.0611V65.3849C131.797 63.5358 131.562 63.441 129.866 63.2514V62.635H135.849ZM133.682 73.8714C133.682 75.4834 134.389 75.9575 135.991 75.9575C139.854 75.9575 141.88 73.3025 141.88 69.4622C141.88 67.0916 141.079 65.29 139.383 64.247C138.393 63.6306 137.121 63.3936 135.708 63.3936C134.719 63.3936 134.2 63.5358 134.012 63.6781C133.823 63.8203 133.729 64.0573 133.729 64.9107V73.8714H133.682Z" fill="#134E6E"/>
<path d="M57.4505 81.2202C57.2149 80.3668 56.838 79.5134 55.613 79.5134C54.5765 79.5134 54.2467 80.272 54.2467 80.9357C54.2467 81.8366 54.8121 82.3107 55.8957 82.8796C57.4505 83.6856 58.1572 84.3019 58.1572 85.5346C58.1572 86.9096 56.9793 87.9526 55.2832 87.9526C54.4823 87.9526 53.8227 87.7155 53.2573 87.5259C53.1631 87.1466 52.9746 86.2458 52.8804 85.5346L53.3044 85.4398C53.5871 86.3406 54.1525 87.4785 55.5188 87.4785C56.4611 87.4785 57.0265 86.8147 57.0265 85.9613C57.0265 84.9657 56.5082 84.539 55.3303 83.9226C53.964 83.1641 53.1631 82.5477 53.1631 81.315C53.1631 80.1298 54.1525 79.0393 55.8486 79.0393C56.6024 79.0393 57.3091 79.229 57.5918 79.2764C57.639 79.7505 57.6861 80.272 57.7803 81.1254L57.4505 81.2202Z" fill="black"/>
<path d="M66.9675 79.6083C66.0723 79.7032 65.8839 79.8454 65.3656 80.6988C64.7531 81.647 64.282 82.5952 63.6695 83.7331C63.5281 84.0176 63.481 84.2072 63.481 84.4917V86.1037C63.481 87.1941 63.6224 87.2889 64.8002 87.3838V87.7631H61.031V87.3838C62.2089 87.2415 62.3031 87.1941 62.3031 86.1037V84.3969C62.3031 84.1124 62.256 84.0176 62.0205 83.6383C61.5493 82.7849 61.1253 81.9315 60.4186 80.6988C59.9003 79.798 59.7589 79.6558 58.8638 79.5609V79.1816H62.0676V79.5609C61.1253 79.7032 61.1724 79.8454 61.408 80.3195C61.9733 81.3151 62.5858 82.5004 63.1041 83.4961C63.5752 82.5952 64.3291 81.1729 64.706 80.4617C64.9887 79.798 64.9887 79.6558 63.9522 79.5609V79.1816H66.9204V79.6083H66.9675Z" fill="black"/>
<path d="M72.0091 81.2202C71.7735 80.3668 71.3966 79.5134 70.1716 79.5134C69.1351 79.5134 68.8053 80.272 68.8053 80.9357C68.8053 81.8366 69.3707 82.3107 70.4543 82.8796C72.0091 83.6856 72.7158 84.3019 72.7158 85.5346C72.7158 86.9096 71.5379 87.9526 69.8418 87.9526C69.0409 87.9526 68.3813 87.7155 67.8159 87.5259C67.7217 87.1466 67.5332 86.2458 67.439 85.5346L67.863 85.4398C68.1457 86.3406 68.7111 87.4785 70.0774 87.4785C71.0197 87.4785 71.5851 86.8147 71.5851 85.9613C71.5851 84.9657 71.0668 84.539 69.8889 83.9226C68.5226 83.1641 67.7217 82.5477 67.7217 81.315C67.7217 80.1298 68.7111 79.0393 70.4072 79.0393C71.161 79.0393 71.8677 79.229 72.1504 79.2764C72.1976 79.7505 72.2447 80.272 72.3389 81.1254L72.0091 81.2202Z" fill="black"/>
<path d="M80.7249 81.3151C80.5836 80.8884 80.4422 80.4617 80.3009 80.2246C80.1124 79.8453 79.9711 79.7979 79.2173 79.7979H77.898V86.2458C77.898 87.2889 77.9923 87.4311 79.2644 87.4785V87.8578H75.4481V87.4785C76.6731 87.3837 76.7673 87.2889 76.7673 86.2458V79.7979H75.5894C74.8827 79.7979 74.6471 79.8928 74.4587 80.272C74.3173 80.5565 74.176 80.841 74.0346 81.3625H73.6577C73.7519 80.5565 73.7991 79.7031 73.8462 78.9919H74.1289C74.3173 79.3238 74.4587 79.2764 74.8356 79.2764H80.0182C80.3951 79.2764 80.4893 79.229 80.6778 78.9919H81.0076C81.0076 79.6083 81.0547 80.5565 81.1018 81.3151H80.7249Z" fill="black"/>
<path d="M89.0172 85.7244C88.923 86.0563 88.5931 87.4312 88.4518 87.8105H82.0913V87.4312C83.3163 87.3364 83.4105 87.2415 83.4105 86.1511V80.9359C83.4105 79.7506 83.2692 79.7032 82.2798 79.6083V79.2291H86.2845C87.5095 79.2291 88.0278 79.2291 88.1691 79.1816C88.1691 79.5135 88.2162 80.5092 88.3105 81.2203L87.9335 81.2677C87.8393 80.841 87.698 80.5566 87.5566 80.2721C87.3682 79.8454 87.0384 79.7506 86.2374 79.7506H85.0124C84.5884 79.7506 84.5884 79.798 84.5884 80.1773V83.1168H86.049C87.0384 83.1168 87.0855 82.9271 87.2739 82.0263H87.698V84.7287H87.2739C87.0855 83.7805 86.9912 83.6383 86.049 83.6383H84.5884V86.2459C84.5884 87.1467 84.8711 87.2415 85.5307 87.2415H86.7557C87.5566 87.2415 87.698 87.1467 87.9807 86.7674C88.2162 86.483 88.4989 85.9614 88.6874 85.5347L89.0172 85.7244Z" fill="black"/>
<path d="M97.2151 87.8104V87.4311C98.2987 87.3363 98.3459 87.2415 98.2987 85.8191V80.4143C97.2151 82.8322 95.4719 86.6251 95.0478 87.763H94.718C94.294 86.5777 92.7863 82.9271 91.7969 80.5565C91.5613 85.1554 91.5613 86.1984 91.5613 86.4829C91.5613 87.2415 91.8911 87.3363 92.7863 87.4311V87.8104H89.6768V87.4311C90.4306 87.3363 90.7604 87.1941 90.8546 86.4829C90.9489 85.914 90.9489 85.4399 91.2787 80.6039C91.3258 79.9402 91.1844 79.7031 90.0537 79.6083V79.229H92.3152L95.2363 85.914L98.3459 79.229H100.654V79.6083C99.5237 79.7505 99.3824 79.8453 99.4295 80.7936L99.4766 85.8666C99.5237 87.2889 99.5708 87.3363 100.702 87.4785V87.8578H97.2151V87.8104Z" fill="black"/>
<path d="M106.308 81.2202C106.073 80.3668 105.696 79.5134 104.471 79.5134C103.434 79.5134 103.105 80.272 103.105 80.9357C103.105 81.8366 103.67 82.3107 104.754 82.8796C106.308 83.6856 107.015 84.3019 107.015 85.5346C107.015 86.9096 105.837 87.9526 104.141 87.9526C103.34 87.9526 102.681 87.7155 102.115 87.5259C102.021 87.1466 101.833 86.2458 101.738 85.5346L102.162 85.4398C102.445 86.3406 103.01 87.4785 104.377 87.4785C105.319 87.4785 105.884 86.8147 105.884 85.9613C105.884 84.9657 105.366 84.539 104.188 83.9226C102.822 83.1641 102.021 82.5477 102.021 81.315C102.021 80.1298 103.01 79.0393 104.707 79.0393C105.46 79.0393 106.167 79.229 106.45 79.2764C106.497 79.7505 106.544 80.272 106.638 81.1254L106.308 81.2202Z" fill="black"/>
<path d="M16.5547 83.7804L50.1946 84.5864L50.1003 82.6426L16.5547 83.7804Z" fill="black"/>
<path d="M110.407 82.6901L110.36 84.6339L144 83.7805L110.407 82.6901Z" fill="black"/>
</g>
<defs>
<clipPath id="clip0">
<rect width="129" height="76" fill="white" transform="translate(15 12)"/>
</clipPath>
</defs>
</svg>
