<svg width="31" height="30" viewBox="0 0 31 30" fill="none" xmlns="http://www.w3.org/2000/svg">
<path d="M15.211 7.30838C10.9535 7.30838 7.51942 10.7425 7.51942 15C7.51942 19.2575 10.9535 22.6916 15.211 22.6916C19.4685 22.6916 22.9027 19.2575 22.9027 15C22.9027 10.7425 19.4685 7.30838 15.211 7.30838ZM15.211 20.0006C12.4597 20.0006 10.2105 17.758 10.2105 15C10.2105 12.242 12.453 9.99944 15.211 9.99944C17.969 9.99944 20.2116 12.242 20.2116 15C20.2116 17.758 17.9624 20.0006 15.211 20.0006ZM25.0113 6.99375C25.0113 7.99119 24.208 8.7878 23.2173 8.7878C22.2199 8.7878 21.4232 7.98449 21.4232 6.99375C21.4232 6.00301 22.2265 5.19971 23.2173 5.19971C24.208 5.19971 25.0113 6.00301 25.0113 6.99375ZM30.1056 8.81457C29.9918 6.41136 29.4429 4.28261 27.6823 2.52873C25.9284 0.774852 23.7997 0.225929 21.3965 0.105433C18.9196 -0.0351445 11.4958 -0.0351445 9.01892 0.105433C6.6224 0.219235 4.49365 0.768158 2.73308 2.52203C0.972504 4.27591 0.430275 6.40466 0.309779 8.80788C0.169201 11.2847 0.169201 18.7086 0.309779 21.1854C0.42358 23.5886 0.972504 25.7174 2.73308 27.4713C4.49365 29.2251 6.6157 29.7741 9.01892 29.8946C11.4958 30.0351 18.9196 30.0351 21.3965 29.8946C23.7997 29.7808 25.9284 29.2318 27.6823 27.4713C29.4362 25.7174 29.9851 23.5886 30.1056 21.1854C30.2462 18.7086 30.2462 11.2914 30.1056 8.81457ZM26.9058 23.843C26.3836 25.1551 25.3728 26.1659 24.0541 26.6947C22.0793 27.478 17.3933 27.2972 15.211 27.2972C13.0287 27.2972 8.33611 27.4713 6.36802 26.6947C5.05596 26.1726 4.04514 25.1618 3.51629 23.843C2.73308 21.8682 2.91382 17.1823 2.91382 15C2.91382 12.8177 2.73977 8.12507 3.51629 6.15698C4.03844 4.84492 5.04926 3.8341 6.36802 3.30525C8.3428 2.52203 13.0287 2.70278 15.211 2.70278C17.3933 2.70278 22.086 2.52873 24.0541 3.30525C25.3661 3.8274 26.3769 4.83822 26.9058 6.15698C27.689 8.13176 27.5083 12.8177 27.5083 15C27.5083 17.1823 27.689 21.8749 26.9058 23.843Z" fill="#824C33"/>
</svg>
