<svg width="31" height="30" viewBox="0 0 31 30" fill="none" xmlns="http://www.w3.org/2000/svg">
<path d="M15.2112 7.30838C10.9537 7.30838 7.51954 10.7425 7.51954 15C7.51954 19.2575 10.9537 22.6916 15.2112 22.6916C19.4687 22.6916 22.9028 19.2575 22.9028 15C22.9028 10.7425 19.4687 7.30838 15.2112 7.30838ZM15.2112 20.0006C12.4599 20.0006 10.2106 17.758 10.2106 15C10.2106 12.242 12.4532 9.99944 15.2112 9.99944C17.9692 9.99944 20.2117 12.242 20.2117 15C20.2117 17.758 17.9625 20.0006 15.2112 20.0006V20.0006ZM25.0115 6.99375C25.0115 7.99119 24.2082 8.78779 23.2174 8.78779C22.22 8.78779 21.4234 7.98449 21.4234 6.99375C21.4234 6.00301 22.2267 5.19971 23.2174 5.19971C24.2082 5.19971 25.0115 6.00301 25.0115 6.99375ZM30.1057 8.81457C29.9919 6.41136 29.443 4.28261 27.6824 2.52873C25.9286 0.774852 23.7998 0.225929 21.3966 0.105433C18.9197 -0.0351445 11.4959 -0.0351445 9.01904 0.105433C6.62252 0.219235 4.49377 0.768158 2.7332 2.52203C0.972626 4.27591 0.430397 6.40466 0.309901 8.80788C0.169323 11.2847 0.169323 18.7086 0.309901 21.1854C0.423702 23.5886 0.972626 25.7174 2.7332 27.4713C4.49377 29.2251 6.61583 29.7741 9.01904 29.8946C11.4959 30.0351 18.9197 30.0351 21.3966 29.8946C23.7998 29.7808 25.9286 29.2318 27.6824 27.4713C29.4363 25.7174 29.9852 23.5886 30.1057 21.1854C30.2463 18.7086 30.2463 11.2914 30.1057 8.81457V8.81457ZM26.9059 23.843C26.3838 25.1551 25.3729 26.1659 24.0542 26.6947C22.0794 27.478 17.3935 27.2972 15.2112 27.2972C13.0289 27.2972 8.33623 27.4713 6.36814 26.6947C5.05608 26.1726 4.04526 25.1618 3.51642 23.843C2.7332 21.8682 2.91394 17.1823 2.91394 15C2.91394 12.8177 2.73989 8.12507 3.51642 6.15698C4.03856 4.84492 5.04939 3.8341 6.36814 3.30525C8.34293 2.52203 13.0289 2.70278 15.2112 2.70278C17.3935 2.70278 22.0861 2.52873 24.0542 3.30525C25.3662 3.8274 26.3771 4.83822 26.9059 6.15698C27.6891 8.13176 27.5084 12.8177 27.5084 15C27.5084 17.1823 27.6891 21.8749 26.9059 23.843Z" fill="#FFBB0B"/>
</svg>
