<svg width="31" height="30" viewBox="0 0 31 30" fill="none" xmlns="http://www.w3.org/2000/svg">
<path d="M6.73665 30H0.49712V9.97054H6.73665V30ZM3.61352 7.23833C1.61833 7.23833 0 5.59097 0 3.60209C1.42808e-08 2.64676 0.38071 1.73055 1.05838 1.05503C1.73604 0.379505 2.65516 0 3.61352 0C4.57189 0 5.49101 0.379505 6.16867 1.05503C6.84634 1.73055 7.22705 2.64676 7.22705 3.60209C7.22705 5.59097 5.60805 7.23833 3.61352 7.23833ZM30.0892 30H23.8631V20.2498C23.8631 17.9261 23.8161 14.9461 20.6191 14.9461C17.375 14.9461 16.8779 17.4707 16.8779 20.0824V30H10.6451V9.97054H16.6293V12.7027H16.7167C17.5497 11.129 19.5845 9.46829 22.6203 9.46829C28.9351 9.46829 30.0959 13.6135 30.0959 18.9975V30H30.0892Z" fill="#FFBB0B"/>
</svg>
