<svg width="146" height="97" viewBox="0 0 146 97" fill="none" xmlns="http://www.w3.org/2000/svg">
<g clip-path="url(#clip0)">
<path d="M45.9998 95.7478V74.4978C45.9998 73.1173 47.1865 71.9978 48.6498 71.9978H53.9498V96.9978H47.3248C46.5928 96.9978 45.9998 96.4384 45.9998 95.7478Z" fill="#D6C089"/>
<path d="M91.0498 71.9978H96.3498C97.8131 71.9978 98.9998 73.1173 98.9998 74.4978V95.7478C98.9998 96.4384 98.4069 96.9978 97.6748 96.9978H91.0498V71.9978Z" fill="#D6C089"/>
<path d="M87.2203 65.7509L73.9703 57.4173C73.5349 57.1438 73.0235 56.9978 72.5004 56.9978C71.9773 56.9978 71.4659 57.1438 71.0305 57.4173L57.7805 65.7509C57.4176 65.9792 57.12 66.2884 56.9141 66.6512C56.7083 67.014 56.6005 67.4191 56.6004 67.8306V96.9978H67.2004V85.7478C67.2004 85.0572 67.7933 84.4978 68.5254 84.4978H76.4754C77.2075 84.4978 77.8004 85.0572 77.8004 85.7478V96.9978H88.4004V67.8314C88.4004 66.9955 87.9573 66.2142 87.2203 65.7509ZM72.5004 76.9978C68.8417 76.9978 65.8754 74.1994 65.8754 70.7478C65.8754 67.2962 68.8417 64.4978 72.5004 64.4978C76.1591 64.4978 79.1254 67.2962 79.1254 70.7478C79.1254 74.1994 76.1591 76.9978 72.5004 76.9978Z" fill="#D6C089"/>
<path d="M73.8252 70.7478H75.8127C76.1787 70.7478 76.4752 71.0275 76.4752 71.3728V72.6228C76.4752 72.9681 76.1787 73.2478 75.8127 73.2478H71.8377C71.4717 73.2478 71.1752 72.9681 71.1752 72.6228V67.6228C71.1752 67.2775 71.4717 66.9978 71.8377 66.9978H73.1627C73.5287 66.9978 73.8252 67.2775 73.8252 67.6228V70.7478Z" fill="#00B7BD"/>
</g>
<line x1="18.5151" y1="68.0102" x2="1.19457" y2="58.0102" stroke="#00B7BD"/>
<line y1="-0.5" x2="20" y2="-0.5" transform="matrix(0.866025 -0.5 -0.5 -0.866025 127.87 67.5771)" stroke="#00B7BD"/>
<line x1="41.2257" y1="44.4666" x2="24.0184" y2="19.892" stroke="#00B7BD"/>
<line y1="-0.5" x2="30" y2="-0.5" transform="matrix(0.573576 -0.819152 -0.819152 -0.573576 105 44.1798)" stroke="#00B7BD"/>
<line x1="73.6376" y1="40.2147" x2="73.6376" y2="0.214722" stroke="#00B7BD"/>
<defs>
<clipPath id="clip0">
<rect width="53" height="40" fill="white" transform="translate(46 57)"/>
</clipPath>
</defs>
</svg>
