<svg width="27" height="30" viewBox="0 0 27 30" fill="none" xmlns="http://www.w3.org/2000/svg">
<path d="M26.2045 12.3025C23.6577 12.3087 21.1733 11.504 19.1023 10.0021V20.4767C19.1016 22.4167 18.5163 24.3102 17.4247 25.9041C16.3331 27.498 14.7872 28.7163 12.9937 29.396C11.2003 30.0758 9.24469 30.1846 7.38851 29.708C5.53233 29.2313 3.86402 28.1919 2.60666 26.7288C1.3493 25.2656 0.562816 23.4484 0.352376 21.5201C0.141936 19.5919 0.517569 17.6445 1.42905 15.9384C2.34053 14.2323 3.74441 12.8487 5.45297 11.9728C7.16153 11.0968 9.09333 10.7702 10.9901 11.0366V16.3049C10.1221 16.0283 9.1901 16.0366 8.3271 16.3287C7.4641 16.6208 6.71427 17.1816 6.18467 17.9312C5.65507 18.6808 5.3728 19.5807 5.37816 20.5025C5.38351 21.4243 5.67623 22.3208 6.21451 23.064C6.75279 23.8072 7.50909 24.3591 8.37543 24.6409C9.24176 24.9226 10.1738 24.9198 11.0385 24.6329C11.9032 24.3459 12.6562 23.7895 13.1902 23.0431C13.7241 22.2967 14.0116 21.3985 14.0115 20.4767V0H19.1023C19.0988 0.435544 19.1348 0.870494 19.2099 1.29935C19.3868 2.25671 19.7546 3.16745 20.2909 3.97585C20.8271 4.78425 21.5205 5.47333 22.3286 6.00093C23.4783 6.7711 24.8262 7.1816 26.2045 7.18131V12.3025Z" fill="#824C33"/>
</svg>
