<svg width="34" height="28" viewBox="0 0 34 28" fill="none" xmlns="http://www.w3.org/2000/svg">
<path d="M30.4146 7.22888C30.4361 7.52418 30.4361 7.81954 30.4361 8.11484C30.4361 17.1218 23.4762 27.5 10.7557 27.5C6.83668 27.5 3.19615 26.382 0.133789 24.4414C0.6906 24.5047 1.22592 24.5258 1.80416 24.5258C5.03778 24.5258 8.01451 23.45 10.3916 21.6149C7.35065 21.5516 4.80225 19.5899 3.92422 16.8898C4.35256 16.9531 4.78083 16.9953 5.23059 16.9953C5.8516 16.9953 6.47268 16.9109 7.05085 16.7633C3.88144 16.1304 1.50429 13.3883 1.50429 10.0766V9.99221C2.42511 10.4985 3.49595 10.8149 4.63086 10.857C2.76775 9.63354 1.54714 7.54528 1.54714 5.18277C1.54714 3.91716 1.88972 2.75701 2.48938 1.7445C5.89438 5.87887 11.0126 8.57883 16.7518 8.87419C16.6447 8.36794 16.5805 7.84065 16.5805 7.31329C16.5805 3.55856 19.6642 0.5 23.4975 0.5C25.4891 0.5 27.2879 1.32265 28.5515 2.65156C30.1147 2.35626 31.6138 1.7867 32.9416 1.00625C32.4275 2.58832 31.3354 3.91723 29.9006 4.76092C31.2926 4.61334 32.6418 4.23356 33.8838 3.70627C32.9417 5.05622 31.7638 6.25851 30.4146 7.22888Z" fill="#824C33"/>
</svg>
