<svg width="40" height="28" viewBox="0 0 40 28" fill="none" xmlns="http://www.w3.org/2000/svg">
<path d="M38.4932 4.72459C38.0515 3.0617 36.7503 1.75205 35.0982 1.30761C32.1036 0.5 20.0955 0.5 20.0955 0.5C20.0955 0.5 8.08756 0.5 5.09288 1.30761C3.44075 1.75213 2.13955 3.0617 1.69791 4.72459C0.895508 7.73867 0.895508 14.0273 0.895508 14.0273C0.895508 14.0273 0.895508 20.3159 1.69791 23.33C2.13955 24.9929 3.44075 26.2479 5.09288 26.6924C8.08756 27.5 20.0955 27.5 20.0955 27.5C20.0955 27.5 32.1035 27.5 35.0982 26.6924C36.7503 26.2479 38.0515 24.9929 38.4932 23.33C39.2956 20.3159 39.2956 14.0273 39.2956 14.0273C39.2956 14.0273 39.2956 7.73867 38.4932 4.72459V4.72459ZM16.1682 19.7369V8.3177L26.2046 14.0274L16.1682 19.7369V19.7369Z" fill="#824C33"/>
</svg>
