<svg width="40" height="28" viewBox="0 0 40 28" fill="none" xmlns="http://www.w3.org/2000/svg">
<path d="M38.4929 4.72459C38.0513 3.0617 36.7501 1.75205 35.0979 1.30761C32.1033 0.5 20.0953 0.5 20.0953 0.5C20.0953 0.5 8.08732 0.5 5.09264 1.30761C3.44051 1.75213 2.1393 3.0617 1.69767 4.72459C0.895264 7.73867 0.895264 14.0273 0.895264 14.0273C0.895264 14.0273 0.895264 20.3159 1.69767 23.33C2.1393 24.9929 3.44051 26.2479 5.09264 26.6924C8.08732 27.5 20.0953 27.5 20.0953 27.5C20.0953 27.5 32.1033 27.5 35.0979 26.6924C36.7501 26.2479 38.0513 24.9929 38.4929 23.33C39.2953 20.3159 39.2953 14.0273 39.2953 14.0273C39.2953 14.0273 39.2953 7.73867 38.4929 4.72459V4.72459ZM16.168 19.7369V8.3177L26.2043 14.0274L16.168 19.7369V19.7369Z" fill="#FFBB0B"/>
</svg>
